<svg width="108" height="60" viewBox="0 0 108 60" fill="none" xmlns="http://www.w3.org/2000/svg">
<path d="M5.20711 20.9083L0 25.28V40.6761C0 40.6761 5.93317 49.9749 15.9603 54.0423L16.9603 57.0239C16.9603 57.0239 16.9171 60.0002 19.1987 60.0002C21.5 60.0002 21.4603 57.0239 21.4603 57.0239L22.4603 54.0423C31.9862 49.9749 38 40.6761 38 40.6761V25.28L32.2364 20.9083V39.8683C32.2364 39.8683 28.977 48.6201 19.2385 49.0002C10.2645 49.3506 5.64435 39.8683 5.64435 39.8683L5.20711 20.9083Z" fill="#5A83ED"/>
<path d="M13.2364 32.883V14.8259L8.14854 18.865L8.5 35.8552C8.5 35.8552 10.5674 46.0142 19.2385 46.0142C28.1025 46.0142 29.5 36.1618 29.5 36.1618L30.3285 18.865L24.6444 14.8259V32.883C24.6444 32.883 24.0879 39.8683 19.1987 39.8683C14.3096 39.8683 13.2364 32.883 13.2364 32.883Z" fill="#5A83ED"/>
<path d="M0 14.5407V21.5735L19.1987 6.93774L38 21.431V14.4457L19.2385 0L0 14.5407Z" fill="#5A83ED"/>
<path d="M52.6648 46.3452C51.1222 46.3452 49.7415 45.9489 48.5227 45.1562C47.304 44.3636 46.3409 43.2131 45.6335 41.7045C44.9261 40.196 44.5724 38.3636 44.5724 36.2074C44.5724 34.0256 44.9304 32.1847 45.6463 30.6847C46.3707 29.1761 47.3466 28.0384 48.5739 27.2713C49.8011 26.4957 51.169 26.108 52.6776 26.108C53.8281 26.108 54.7741 26.304 55.5156 26.696C56.2571 27.0795 56.8452 27.544 57.2798 28.0895C57.7145 28.6264 58.0511 29.1335 58.2898 29.6108H58.4815V19.8182H63.1222V46H58.571V42.9062H58.2898C58.0511 43.3835 57.706 43.8906 57.2543 44.4276C56.8026 44.956 56.206 45.4077 55.4645 45.7827C54.723 46.1577 53.7898 46.3452 52.6648 46.3452ZM53.956 42.5483C54.9361 42.5483 55.7713 42.2841 56.4616 41.7557C57.152 41.2187 57.6761 40.473 58.0341 39.5185C58.392 38.5639 58.571 37.4517 58.571 36.1818C58.571 34.9119 58.392 33.8082 58.0341 32.8707C57.6847 31.9332 57.1648 31.2045 56.4744 30.6847C55.7926 30.1648 54.9531 29.9048 53.956 29.9048C52.9247 29.9048 52.0639 30.1733 51.3736 30.7102C50.6832 31.2472 50.1634 31.9886 49.8139 32.9347C49.4645 33.8807 49.2898 34.9631 49.2898 36.1818C49.2898 37.4091 49.4645 38.5043 49.8139 39.4673C50.1719 40.4219 50.696 41.1761 51.3864 41.7301C52.0852 42.2756 52.9418 42.5483 53.956 42.5483ZM76.7468 46.3835C74.7781 46.3835 73.0778 45.9744 71.646 45.1562C70.2227 44.3295 69.1275 43.1619 68.3604 41.6534C67.5934 40.1364 67.2099 38.3509 67.2099 36.2969C67.2099 34.277 67.5934 32.5043 68.3604 30.9787C69.136 29.4446 70.2184 28.2514 71.6076 27.3991C72.9968 26.5384 74.6289 26.108 76.5039 26.108C77.7141 26.108 78.8562 26.304 79.93 26.696C81.0124 27.0795 81.967 27.6761 82.7937 28.4858C83.6289 29.2955 84.2852 30.3267 84.7624 31.5795C85.2397 32.8239 85.4783 34.3068 85.4783 36.0284V37.4474H69.3832V34.3281H81.0423C81.0337 33.4418 80.842 32.6534 80.467 31.9631C80.092 31.2642 79.5678 30.7145 78.8945 30.3139C78.2298 29.9134 77.4542 29.7131 76.5678 29.7131C75.6218 29.7131 74.7908 29.9432 74.0749 30.4034C73.359 30.8551 72.8008 31.4517 72.4002 32.1932C72.0082 32.9261 71.8079 33.7315 71.7994 34.6094V37.3324C71.7994 38.4744 72.0082 39.4545 72.4258 40.2727C72.8434 41.0824 73.4272 41.7045 74.1772 42.1392C74.9272 42.5653 75.805 42.7784 76.8107 42.7784C77.484 42.7784 78.0934 42.6847 78.6389 42.4972C79.1843 42.3011 79.6573 42.0156 80.0579 41.6406C80.4585 41.2656 80.761 40.8011 80.9656 40.2472L85.2866 40.733C85.0138 41.875 84.494 42.8722 83.7269 43.7244C82.9684 44.5682 81.9968 45.2244 80.8121 45.6932C79.6275 46.1534 78.2724 46.3835 76.7468 46.3835ZM93.6122 39.8381L93.5994 34.2514H94.3409L101.398 26.3636H106.805L98.125 36.0284H97.1662L93.6122 39.8381ZM89.3935 46V19.8182H94.0213V46H89.3935ZM101.717 46L95.3253 37.0639L98.4446 33.804L107.253 46H101.717Z" fill="#5A83ED"/>
</svg>
