<svg width="393" height="745" viewBox="0 0 393 745" fill="none" xmlns="http://www.w3.org/2000/svg">
<path d="M27.1297 257.519L-37 311.364V500.992C-37 500.992 32.0086 615.521 155.5 665.618L165 702.341C165 702.341 171.837 753 199.937 753C228.279 753 234 702.341 234 702.341L239.616 665.618C356.935 615.521 431 500.992 431 500.992V311.364L360.017 257.519V491.042C360.017 491.042 319.874 598.835 199.937 603.517C89.4154 607.832 32.5146 491.042 32.5146 491.042L27.1297 257.519Z" fill="#5A83ED" fill-opacity="0.06"/>
<path d="M126.017 405.008V182.604L63.3557 232.353L67.6842 441.615C67.6842 441.615 93.1457 566.74 199.937 566.74C309.105 566.74 326.316 445.391 326.316 445.391L336.519 232.353L266.515 182.604V405.008C266.515 405.008 259.661 491.042 199.448 491.042C139.234 491.042 126.017 405.008 126.017 405.008Z" fill="#5A83ED" fill-opacity="0.06"/>
<path d="M-37 179.093V265.713L199.448 85.4495L431 263.957V177.922L199.937 0L-37 179.093Z" fill="#5A83ED" fill-opacity="0.06"/>
</svg>
