<svg width="44" height="44" viewBox="0 0 44 44" fill="none" xmlns="http://www.w3.org/2000/svg">
<path fill-rule="evenodd" clip-rule="evenodd" d="M12.8333 9.1665H20.1667C23.6236 9.1665 25.3521 9.1665 26.4261 10.2404C27.5 11.3144 27.5 13.0429 27.5 16.4998V38.9582H30.25H38.5H40.3333C41.0927 38.9582 41.7083 39.5738 41.7083 40.3332C41.7083 41.0926 41.0927 41.7082 40.3333 41.7082H3.66667C2.90728 41.7082 2.29167 41.0926 2.29167 40.3332C2.29167 39.5738 2.90728 38.9582 3.66667 38.9582H5.50001V16.4998C5.50001 13.0429 5.5 11.3144 6.57395 10.2404C7.64789 9.1665 9.37637 9.1665 12.8333 9.1665ZM9.625 14.6665C9.625 13.9071 10.2406 13.2915 11 13.2915H22C22.7594 13.2915 23.375 13.9071 23.375 14.6665C23.375 15.4259 22.7594 16.0415 22 16.0415H11C10.2406 16.0415 9.625 15.4259 9.625 14.6665ZM9.625 20.1665C9.625 19.4071 10.2406 18.7915 11 18.7915H22C22.7594 18.7915 23.375 19.4071 23.375 20.1665C23.375 20.9259 22.7594 21.5415 22 21.5415H11C10.2406 21.5415 9.625 20.9259 9.625 20.1665ZM9.625 25.6665C9.625 24.9071 10.2406 24.2915 11 24.2915H22C22.7594 24.2915 23.375 24.9071 23.375 25.6665C23.375 26.4259 22.7594 27.0415 22 27.0415H11C10.2406 27.0415 9.625 26.4259 9.625 25.6665ZM16.5 33.4582C17.2594 33.4582 17.875 34.0738 17.875 34.8332V38.9582H15.125V34.8332C15.125 34.0738 15.7406 33.4582 16.5 33.4582Z" fill="#5A83ED"/>
<path opacity="0.5" d="M27.4999 3.6665H31.1666C34.6236 3.6665 36.3521 3.6665 37.426 4.74045C38.4999 5.81439 38.4999 7.54287 38.4999 10.9998V38.9582H27.5V16.4998C27.5 13.0429 27.5 11.3144 26.4261 10.2404C25.3763 9.19069 23.7012 9.16705 20.3976 9.16652V6.41648C20.5522 5.70654 20.8101 5.17091 21.2406 4.74045C22.3145 3.6665 24.043 3.6665 27.4999 3.6665Z" fill="#5A83ED"/>
</svg>
