<svg width="26" height="26" viewBox="0 0 26 26" fill="none" xmlns="http://www.w3.org/2000/svg">
<path fill-rule="evenodd" clip-rule="evenodd" d="M3.75319 3.75325C2.16669 5.33976 2.16669 7.8932 2.16669 13.0001C2.16669 18.107 2.16669 20.6604 3.75319 22.2469C5.3397 23.8334 7.89314 23.8334 13 23.8334C18.1069 23.8334 20.6603 23.8334 22.2468 22.2469C23.8334 20.6604 23.8334 18.107 23.8334 13.0001C23.8334 7.8932 23.8334 5.33976 22.2468 3.75325C20.6603 2.16675 18.1069 2.16675 13 2.16675C7.89314 2.16675 5.3397 2.16675 3.75319 3.75325ZM18.4167 13.2709C18.8654 13.2709 19.2292 13.6347 19.2292 14.0834V19.5001C19.2292 19.9488 18.8654 20.3126 18.4167 20.3126C17.968 20.3126 17.6042 19.9488 17.6042 19.5001V14.0834C17.6042 13.6347 17.968 13.2709 18.4167 13.2709ZM13.8125 6.50008C13.8125 6.05135 13.4488 5.68758 13 5.68758C12.5513 5.68758 12.1875 6.05135 12.1875 6.50008V19.5001C12.1875 19.9488 12.5513 20.3126 13 20.3126C13.4488 20.3126 13.8125 19.9488 13.8125 19.5001V6.50008ZM7.58335 8.93758C8.03209 8.93758 8.39585 9.30135 8.39585 9.75008V19.5001C8.39585 19.9488 8.03209 20.3126 7.58335 20.3126C7.13462 20.3126 6.77085 19.9488 6.77085 19.5001V9.75008C6.77085 9.30135 7.13462 8.93758 7.58335 8.93758Z" fill="#AEAEAE"/>
</svg>
