<svg width="20" height="21" viewBox="0 0 20 21" fill="none" xmlns="http://www.w3.org/2000/svg">
<path d="M9.99998 2.7915C9.18457 2.7915 8.48921 3.31236 8.23151 4.04145C8.11649 4.3669 7.75941 4.53747 7.43396 4.42245C7.10851 4.30742 6.93794 3.95034 7.05296 3.62489C7.48166 2.41199 8.63836 1.5415 9.99998 1.5415C11.3616 1.5415 12.5183 2.41199 12.947 3.62489C13.062 3.95034 12.8915 4.30742 12.566 4.42245C12.2406 4.53747 11.8835 4.3669 11.7685 4.04145C11.5108 3.31236 10.8154 2.7915 9.99998 2.7915Z" fill="#FF0000"/>
<path d="M2.29163 5.49984C2.29163 5.15466 2.57145 4.87484 2.91663 4.87484H17.0834C17.4285 4.87484 17.7084 5.15466 17.7084 5.49984C17.7084 5.84502 17.4285 6.12484 17.0834 6.12484H2.91663C2.57145 6.12484 2.29163 5.84502 2.29163 5.49984Z" fill="#FF0000"/>
<path d="M4.9292 7.54159C4.90624 7.19718 4.60842 6.93659 4.26401 6.95955C3.91959 6.98251 3.659 7.28033 3.68197 7.62474L4.06817 13.4179C4.13942 14.4868 4.19697 15.3503 4.33195 16.0278C4.47228 16.7322 4.71096 17.3206 5.20396 17.7819C5.69695 18.2431 6.29991 18.4421 7.01212 18.5353C7.69715 18.6249 8.56252 18.6249 9.63384 18.6248H10.3662C11.4375 18.6249 12.3029 18.6249 12.9879 18.5353C13.7001 18.4421 14.3031 18.2431 14.7961 17.7819C15.2891 17.3206 15.5278 16.7322 15.6681 16.0278C15.8031 15.3503 15.8606 14.4868 15.9319 13.4179L16.3181 7.62474C16.341 7.28033 16.0805 6.98251 15.736 6.95955C15.3916 6.93659 15.0938 7.19718 15.0709 7.54159L14.6876 13.2909C14.6127 14.4141 14.5593 15.1956 14.4422 15.7836C14.3286 16.354 14.17 16.6559 13.9421 16.869C13.7143 17.0822 13.4025 17.2204 12.8258 17.2958C12.2313 17.3736 11.448 17.3748 10.3223 17.3748H9.67779C8.55209 17.3748 7.76875 17.3736 7.17425 17.2958C6.59758 17.2204 6.28578 17.0822 6.05794 16.869C5.83009 16.6559 5.67148 16.354 5.55786 15.7836C5.44072 15.1956 5.38736 14.4141 5.31248 13.2909L4.9292 7.54159Z" fill="#FF0000"/>
<path d="M7.85451 9.04461C8.19797 9.01026 8.50425 9.26085 8.5386 9.60431L8.95526 13.771C8.98961 14.1144 8.73902 14.4207 8.39555 14.4551C8.05209 14.4894 7.74581 14.2388 7.71147 13.8954L7.2948 9.72869C7.26045 9.38523 7.51104 9.07895 7.85451 9.04461Z" fill="#FF0000"/>
<path d="M12.7053 9.72869C12.7396 9.38523 12.489 9.07895 12.1456 9.04461C11.8021 9.01026 11.4958 9.26085 11.4615 9.60431L11.0448 13.771C11.0105 14.1144 11.261 14.4207 11.6045 14.4551C11.948 14.4894 12.2542 14.2388 12.2886 13.8954L12.7053 9.72869Z" fill="#FF0000"/>
</svg>
