<svg width="44" height="44" viewBox="0 0 44 44" fill="none" xmlns="http://www.w3.org/2000/svg">
<path opacity="0.5" d="M5.81454 13.1479C7.36149 11.6009 9.58748 11.1681 13.2949 11.047L16.0455 11.0034C16.7631 11 17.5245 11 18.3333 11H25.6667C26.4754 11 27.2369 11 27.9545 11.0034L30.705 11.047C34.4125 11.1681 36.6385 11.6009 38.1854 13.1479C40.3333 15.2958 40.3333 18.7527 40.3333 25.6667C40.3333 32.5806 40.3333 36.0376 38.1854 38.1855C36.0376 40.3333 32.5806 40.3333 25.6667 40.3333H25.6667H18.3333H18.3333C11.4194 40.3333 7.96242 40.3333 5.81454 38.1855C3.66666 36.0376 3.66666 32.5806 3.66666 25.6667C3.66666 18.7527 3.66666 15.2958 5.81454 13.1479Z" fill="#5A83ED"/>
<path d="M23.375 18.3335C23.375 17.5741 22.7594 16.9585 22 16.9585C21.2406 16.9585 20.625 17.5741 20.625 18.3335V18.3523C18.6289 18.8551 16.9583 20.429 16.9583 22.6113C16.9583 25.2823 19.461 27.0418 22 27.0418C23.511 27.0418 24.2917 28.0183 24.2917 28.7224C24.2917 29.4264 23.511 30.4029 22 30.4029C20.489 30.4029 19.7083 29.4264 19.7083 28.7224C19.7083 27.963 19.0927 27.3474 18.3333 27.3474C17.574 27.3474 16.9583 27.963 16.9583 28.7224C16.9583 30.9047 18.6289 32.4785 20.625 32.9814V33.0002C20.625 33.7596 21.2406 34.3752 22 34.3752C22.7594 34.3752 23.375 33.7596 23.375 33.0002V32.9814C25.3711 32.4785 27.0417 30.9047 27.0417 28.7224C27.0417 26.0514 24.5391 24.2918 22 24.2918C20.489 24.2918 19.7083 23.3153 19.7083 22.6113C19.7083 21.9072 20.489 20.9307 22 20.9307C23.511 20.9307 24.2917 21.9072 24.2917 22.6113C24.2917 23.3707 24.9073 23.9863 25.6667 23.9863C26.4261 23.9863 27.0417 23.3707 27.0417 22.6113C27.0417 20.429 25.3711 18.8551 23.375 18.3523V18.3335Z" fill="#5A83ED"/>
<path d="M22.0956 2.29151H21.905C20.2578 2.29145 18.8842 2.29141 17.7938 2.43801C16.6428 2.59276 15.6037 2.93315 14.7686 3.76818C13.9336 4.60321 13.5932 5.64234 13.4385 6.7933C13.3334 7.57497 13.3037 9.44421 13.2953 11.0469L16.0458 11.0033C16.0541 9.4511 16.0805 7.78064 16.164 7.15973C16.2777 6.31372 16.4743 5.95164 16.7132 5.71272C16.9521 5.47381 17.3142 5.27724 18.1602 5.16349C19.0458 5.04443 20.233 5.04151 22.0003 5.04151C23.7677 5.04151 24.9549 5.04443 25.8404 5.16349C26.6864 5.27724 27.0485 5.47381 27.2874 5.71272C27.5263 5.95164 27.7229 6.31372 27.8367 7.15973C27.9201 7.78064 27.9465 9.4511 27.9548 11.0033L30.7054 11.0469C30.697 9.44421 30.6672 7.57497 30.5621 6.7933C30.4074 5.64234 30.067 4.60321 29.232 3.76818C28.3969 2.93315 27.3578 2.59276 26.2069 2.43801C25.1164 2.29141 23.7428 2.29145 22.0956 2.29151Z" fill="#5A83ED"/>
</svg>
