<svg width="26" height="26" viewBox="0 0 26 26" fill="none" xmlns="http://www.w3.org/2000/svg">
<path fill-rule="evenodd" clip-rule="evenodd" d="M2.16669 17.489V5.41437C2.16669 4.22468 3.12685 3.25823 4.31429 3.33121C5.37203 3.39622 6.62297 3.52472 7.58335 3.77815C8.72 4.07808 10.0708 4.71693 11.1391 5.28183C11.4718 5.45775 11.8256 5.57977 12.1877 5.64855V22.0921C11.8595 22.0197 11.5392 21.903 11.2368 21.7418C10.154 21.1646 8.75493 20.4954 7.58335 20.1862C6.63359 19.9356 5.39966 19.8072 4.34945 19.7415C3.14824 19.6663 2.16669 18.6925 2.16669 17.489ZM5.61394 8.96184C5.17861 8.85301 4.73747 9.11769 4.62864 9.55302C4.5198 9.98835 4.78449 10.4295 5.21982 10.5383L9.55315 11.6217C9.98849 11.7305 10.4296 11.4658 10.5385 11.0305C10.6473 10.5951 10.3826 10.154 9.94727 10.0452L5.61394 8.96184ZM5.61394 13.2952C5.17861 13.1863 4.73747 13.451 4.62864 13.8864C4.5198 14.3217 4.78449 14.7628 5.21982 14.8717L9.55315 15.955C9.98849 16.0638 10.4296 15.7991 10.5385 15.3638C10.6473 14.9285 10.3826 14.4873 9.94727 14.3785L5.61394 13.2952Z" fill="#AEAEAE"/>
<path fill-rule="evenodd" clip-rule="evenodd" d="M13.8127 22.092C14.1408 22.0196 14.4609 21.9029 14.7632 21.7418C15.846 21.1646 17.2451 20.4954 18.4167 20.1862C19.3665 19.9356 20.6004 19.8072 21.6506 19.7415C22.8518 19.6663 23.8334 18.6925 23.8334 17.489V5.34437C23.8334 4.18256 22.9166 3.22886 21.7555 3.26931C20.5329 3.3119 19.0092 3.43861 17.875 3.77815C16.8918 4.07251 15.7466 4.66295 14.8133 5.20306C14.4976 5.38578 14.1602 5.51999 13.8127 5.6051V22.092ZM20.7806 10.5383C21.2159 10.4295 21.4806 9.98835 21.3718 9.55302C21.263 9.11769 20.8218 8.85301 20.3865 8.96184L16.0532 10.0452C15.6178 10.154 15.3531 10.5951 15.462 11.0305C15.5708 11.4658 16.0119 11.7305 16.4473 11.6217L20.7806 10.5383ZM20.7806 14.8717C21.2159 14.7628 21.4806 14.3217 21.3718 13.8864C21.263 13.451 20.8218 13.1863 20.3865 13.2952L16.0532 14.3785C15.6178 14.4873 15.3531 14.9285 15.462 15.3638C15.5708 15.7991 16.0119 16.0638 16.4473 15.955L20.7806 14.8717Z" fill="#AEAEAE"/>
</svg>
