<svg width="26" height="26" viewBox="0 0 26 26" fill="none" xmlns="http://www.w3.org/2000/svg">
<path d="M21.6666 14.8957C21.6666 14.4469 21.3029 14.0832 20.8541 14.0832H17.6041C17.1554 14.0832 16.7916 14.4469 16.7916 14.8957V22.2082H15.1666V4.604C15.1666 3.815 15.1649 3.30499 15.1144 2.9292C15.067 2.57679 14.9905 2.46633 14.9287 2.40448C14.8668 2.34263 14.7564 2.26613 14.4039 2.21875C14.0282 2.16823 13.5181 2.1665 12.7291 2.1665C11.9401 2.1665 11.4301 2.16823 11.0543 2.21875C10.7019 2.26613 10.5915 2.34263 10.5296 2.40448C10.4678 2.46633 10.3913 2.57679 10.3439 2.9292C10.2934 3.30499 10.2916 3.815 10.2916 4.604V22.2082H8.66665V9.479C8.66665 9.03027 8.30288 8.6665 7.85415 8.6665H4.60415C4.15541 8.6665 3.79165 9.03027 3.79165 9.479V22.2082H2.16665H1.89581C1.44708 22.2082 1.08331 22.5719 1.08331 23.0207C1.08331 23.4694 1.44708 23.8332 1.89581 23.8332H23.5625C24.0112 23.8332 24.375 23.4694 24.375 23.0207C24.375 22.5719 24.0112 22.2082 23.5625 22.2082H23.2916H21.6666V14.8957Z" fill="#AEAEAE"/>
</svg>
