<svg width="44" height="44" viewBox="0 0 44 44" fill="none" xmlns="http://www.w3.org/2000/svg">
<path opacity="0.5" d="M13.2825 3.66602H30.7174C32.842 3.66602 33.9043 3.66602 34.7611 3.96413C36.3857 4.52943 37.6612 5.84253 38.2104 7.51503C38.5 8.39702 38.5 9.49061 38.5 11.6778V37.352C38.5 38.9255 36.6941 39.7603 35.5518 38.715C34.8806 38.1008 33.8693 38.1008 33.1981 38.715L32.3125 39.5254C31.1362 40.6018 29.3637 40.6018 28.1875 39.5254C27.0112 38.4491 25.2387 38.4491 24.0625 39.5254C22.8862 40.6018 21.1137 40.6018 19.9375 39.5254C18.7612 38.4491 16.9887 38.4491 15.8125 39.5254C14.6362 40.6018 12.8637 40.6018 11.6875 39.5254L10.8018 38.715C10.1306 38.1008 9.11927 38.1008 8.44813 38.715C7.30578 39.7603 5.49995 38.9255 5.49995 37.352V11.6778C5.49995 9.49061 5.49995 8.39702 5.78954 7.51503C6.33867 5.84253 7.61419 4.52943 9.23883 3.96413C10.0956 3.66602 11.1579 3.66602 13.2825 3.66602Z" fill="#5A83ED"/>
<path d="M27.6091 15.5833C28.1148 15.0168 28.0656 14.1476 27.4992 13.6418C26.9327 13.1361 26.0635 13.1853 25.5577 13.7517L20.0358 19.9363L18.4424 18.1517C17.9366 17.5853 17.0674 17.5361 16.501 18.0418C15.9345 18.5476 15.8853 19.4168 16.3911 19.9833L19.0101 22.9166C19.271 23.2088 19.6441 23.3758 20.0358 23.3758C20.4275 23.3758 20.8006 23.2088 21.0615 22.9166L27.6091 15.5833Z" fill="#5A83ED"/>
<path d="M13.7501 27.0425C12.9907 27.0425 12.3751 27.6581 12.3751 28.4175C12.3751 29.1769 12.9907 29.7925 13.7501 29.7925H30.2501C31.0095 29.7925 31.6251 29.1769 31.6251 28.4175C31.6251 27.6581 31.0095 27.0425 30.2501 27.0425H13.7501Z" fill="#5A83ED"/>
</svg>
