<svg width="28" height="28" viewBox="0 0 28 28" fill="none" xmlns="http://www.w3.org/2000/svg">
<path d="M15.167 17.9668C15.167 15.547 15.167 14.337 15.9358 13.5853C16.7047 12.8335 17.9421 12.8335 20.417 12.8335C22.8919 12.8335 24.1293 12.8335 24.8981 13.5853C25.667 14.337 25.667 15.547 25.667 17.9668V20.5335C25.667 22.9534 25.667 24.1633 24.8981 24.9151C24.1293 25.6668 22.8919 25.6668 20.417 25.6668C17.9421 25.6668 16.7047 25.6668 15.9358 24.9151C15.167 24.1633 15.167 22.9534 15.167 20.5335V17.9668Z" fill="#5A83ED"/>
<path d="M2.33301 10.0335C2.33301 12.4534 2.33301 13.6633 3.10185 14.4151C3.8707 15.1668 5.10813 15.1668 7.58301 15.1668C10.0579 15.1668 11.2953 15.1668 12.0642 14.4151C12.833 13.6633 12.833 12.4534 12.833 10.0335V7.46683C12.833 5.04695 12.833 3.83701 12.0642 3.08526C11.2953 2.3335 10.0579 2.3335 7.58301 2.3335C5.10813 2.3335 3.8707 2.3335 3.10185 3.08526C2.33301 3.83701 2.33301 5.04695 2.33301 7.46683V10.0335Z" fill="#5A83ED"/>
<path d="M15.167 6.41683C15.167 5.14843 15.167 4.51423 15.3668 4.01397C15.6332 3.34695 16.1442 2.817 16.7874 2.54071C17.2698 2.3335 17.8814 2.3335 19.1045 2.3335H21.7295C22.9526 2.3335 23.5641 2.3335 24.0465 2.54071C24.6897 2.817 25.2008 3.34695 25.4672 4.01397C25.667 4.51423 25.667 5.14843 25.667 6.41683C25.667 7.68523 25.667 8.31942 25.4672 8.81969C25.2008 9.48671 24.6897 10.0167 24.0465 10.2929C23.5641 10.5002 22.9526 10.5002 21.7295 10.5002H19.1045C17.8814 10.5002 17.2698 10.5002 16.7874 10.2929C16.1442 10.0167 15.6332 9.48671 15.3668 8.81969C15.167 8.31942 15.167 7.68523 15.167 6.41683Z" fill="#5A83ED"/>
<path d="M2.33301 21.5833C2.33301 22.8517 2.33301 23.4859 2.53282 23.9862C2.79925 24.6532 3.31027 25.1832 3.95346 25.4594C4.43586 25.6667 5.04741 25.6667 6.27051 25.6667H8.89551C10.1186 25.6667 10.7302 25.6667 11.2126 25.4594C11.8558 25.1832 12.3668 24.6532 12.6332 23.9862C12.833 23.4859 12.833 22.8517 12.833 21.5833C12.833 20.3149 12.833 19.6807 12.6332 19.1805C12.3668 18.5135 11.8558 17.9835 11.2126 17.7072C10.7302 17.5 10.1186 17.5 8.89551 17.5H6.27051C5.04741 17.5 4.43586 17.5 3.95346 17.7072C3.31027 17.9835 2.79925 18.5135 2.53282 19.1805C2.33301 19.6807 2.33301 20.3149 2.33301 21.5833Z" fill="#5A83ED"/>
</svg>
