<svg width="18" height="18" viewBox="0 0 18 18" fill="none" xmlns="http://www.w3.org/2000/svg">
<path d="M6.7213 14.534L6.09118 15.3105L6.7213 14.534ZM9 4.18059L8.26956 4.86356C8.45865 5.0658 8.72313 5.18059 9 5.18059C9.27687 5.18059 9.54135 5.0658 9.73044 4.86356L9 4.18059ZM11.2787 14.534L11.9088 15.3105L11.2787 14.534ZM9 15.75L9.00001 14.75L9 15.75ZM6.7213 14.534L7.35142 13.7575C6.27642 12.8851 5.03463 11.7515 4.07007 10.5214C3.08624 9.26658 2.5 8.04892 2.5 6.98813H1.5H0.5C0.5 8.72427 1.42104 10.3842 2.49618 11.7554C3.59059 13.1512 4.95945 14.3921 6.09118 15.3105L6.7213 14.534ZM1.5 6.98813H2.5C2.5 4.9324 3.38811 3.78604 4.34903 3.40977C5.30535 3.03531 6.7663 3.25582 8.26956 4.86356L9 4.18059L9.73044 3.49762C7.85882 1.49589 5.56977 0.783912 3.61981 1.54746C1.67445 2.3092 0.5 4.37134 0.5 6.98813H1.5ZM11.2787 14.534L11.9088 15.3105C13.0406 14.3921 14.4094 13.1512 15.5038 11.7554C16.579 10.3842 17.5 8.72427 17.5 6.9881H16.5H15.5C15.5 8.04894 14.9138 9.26661 13.9299 10.5214C12.9654 11.7516 11.7236 12.8851 10.6486 13.7575L11.2787 14.534ZM16.5 6.9881H17.5C17.5 4.37132 16.3256 2.30919 14.3802 1.54745C12.4302 0.783913 10.1412 1.49589 8.26956 3.49762L9 4.18059L9.73044 4.86356C11.2337 3.25582 12.6947 3.03531 13.651 3.40977C14.6119 3.78604 15.5 4.93239 15.5 6.9881H16.5ZM6.7213 14.534L6.09118 15.3105C7.00943 16.0556 7.79658 16.75 9 16.75L9 15.75L9.00001 14.75C8.643 14.75 8.43115 14.6337 7.35142 13.7575L6.7213 14.534ZM11.2787 14.534L10.6486 13.7575C9.56886 14.6337 9.35701 14.75 9.00001 14.75L9 15.75L9 16.75C10.2034 16.75 10.9906 16.0556 11.9088 15.3105L11.2787 14.534Z" fill="#5A83ED"/>
</svg>
