<svg width="33" height="32" viewBox="0 0 33 32" fill="none" xmlns="http://www.w3.org/2000/svg">
<circle cx="7.16699" cy="6.6665" r="4" fill="#5A83ED"/>
<circle cx="25.833" cy="25.3335" r="4" fill="#5A83ED"/>
<path fill-rule="evenodd" clip-rule="evenodd" d="M14.1665 6.6665C14.1665 6.11422 14.6142 5.6665 15.1665 5.6665H22.009C25.6773 5.6665 27.0723 10.4572 23.9775 12.4266L10.0958 21.2604C8.6891 22.1556 9.32323 24.3332 10.9906 24.3332H15.4189L15.126 24.0403C14.7355 23.6498 14.7355 23.0166 15.126 22.6261C15.5166 22.2355 16.1497 22.2355 16.5402 22.6261L18.5402 24.6261C18.9308 25.0166 18.9308 25.6498 18.5402 26.0403L16.5402 28.0403C16.1497 28.4308 15.5166 28.4308 15.126 28.0403C14.7355 27.6498 14.7355 27.0166 15.126 26.6261L15.4189 26.3332H10.9906C7.32231 26.3332 5.92729 21.5425 9.02209 19.5731L22.9038 10.7393C24.3105 9.84408 23.6764 7.6665 22.009 7.6665H15.1665C14.6142 7.6665 14.1665 7.21879 14.1665 6.6665Z" fill="#5A83ED"/>
</svg>
