<svg width="33" height="32" viewBox="0 0 33 32" fill="none" xmlns="http://www.w3.org/2000/svg">
<path d="M28.5 22.4386V14.883C28.5 13.4915 28.5 12.7958 28.1225 12.272C27.8175 11.8489 27.3282 11.624 26.4556 11.3213C26.2771 13.4629 25.5679 15.65 24.454 17.5641C23.1571 19.793 21.2311 21.7857 18.7626 22.8626C17.324 23.4902 15.676 23.4902 14.2374 22.8626C11.7689 21.7857 9.84291 19.793 8.54599 17.5641C7.70114 16.1122 7.08907 14.5033 6.76482 12.8764C6.25477 12.8012 5.86333 12.8398 5.52555 13.0282C5.39078 13.1034 5.26517 13.194 5.15122 13.298C4.5 13.8928 4.5 14.9988 4.5 17.2106V23.7836C4.5 25.175 4.5 25.8707 4.87752 26.3945C5.25503 26.9183 5.91505 27.1383 7.23509 27.5783L7.74651 27.7488L7.74653 27.7488C9.84916 28.4497 10.9005 28.8001 11.9758 28.8021C12.2997 28.8027 12.6232 28.7798 12.9438 28.7333C14.0081 28.5792 15.0079 28.0793 17.0075 27.0795C18.5399 26.3133 19.3061 25.9302 20.12 25.7525C20.4057 25.6901 20.6951 25.6466 20.9865 25.6222C21.8166 25.5527 22.6543 25.6923 24.3295 25.9715L24.3295 25.9715C26.0273 26.2545 26.8762 26.396 27.496 26.0401C27.7065 25.9192 27.8932 25.761 28.047 25.5732C28.5 25.0204 28.5 24.1598 28.5 22.4386Z" fill="#5A83ED"/>
<path fill-rule="evenodd" clip-rule="evenodd" d="M16.5 2.66699C12.0817 2.66699 8.5 6.06981 8.5 10.2674C8.5 14.4321 11.0533 19.2919 15.0371 21.0298C15.9657 21.4349 17.0343 21.4349 17.9629 21.0298C21.9467 19.2919 24.5 14.4321 24.5 10.2674C24.5 6.06981 20.9183 2.66699 16.5 2.66699ZM16.5 13.3337C17.9728 13.3337 19.1667 12.1398 19.1667 10.667C19.1667 9.19423 17.9728 8.00033 16.5 8.00033C15.0272 8.00033 13.8333 9.19423 13.8333 10.667C13.8333 12.1398 15.0272 13.3337 16.5 13.3337Z" fill="#5A83ED"/>
</svg>
